<svg width="64" height="65" viewBox="0 0 64 65" fill="none" xmlns="http://www.w3.org/2000/svg">
<path d="M60.4447 0.619629H3.5558C2.61281 0.619629 1.70844 0.994231 1.04164 1.66103C0.374846 2.32782 0.000244141 3.23219 0.000244141 4.17518V61.0641C0.000244141 62.0071 0.374846 62.9114 1.04164 63.5782C1.70844 64.245 2.61281 64.6196 3.5558 64.6196H34.1869V39.873H25.874V30.1841H34.1869V23.073C34.1869 14.8063 39.2358 10.3014 46.6314 10.3014C49.1167 10.2943 51.6056 10.4223 54.0802 10.6819V19.2863H48.978C44.9674 19.2863 44.1851 21.1992 44.1851 23.9974V30.1663H53.7745L52.53 39.8552H44.1816V64.6196H60.4447C61.3877 64.6196 62.2921 64.245 62.9589 63.5782C63.6256 62.9114 64.0002 62.0071 64.0002 61.0641V4.17518C64.0002 3.23219 63.6256 2.32782 62.9589 1.66103C62.2921 0.994231 61.3877 0.619629 60.4447 0.619629Z" fill="black"/>
<path d="M1.04164 1.66103C1.70844 0.994231 2.61281 0.619629 3.5558 0.619629H0.000244141V4.17518C0.000244141 3.23219 0.374846 2.32782 1.04164 1.66103Z" fill="black"/>
<path d="M62.9589 1.66103C63.6256 2.32782 64.0002 3.23219 64.0002 4.17518V0.619629H60.4447C61.3877 0.619629 62.2921 0.994231 62.9589 1.66103Z" fill="black"/>
<path d="M62.9589 63.5782C62.2921 64.245 61.3877 64.6196 60.4447 64.6196H64.0002V61.0641C64.0002 62.0071 63.6256 62.9114 62.9589 63.5782Z" fill="black"/>
<path d="M1.04164 63.5782C0.374846 62.9114 0.000244141 62.0071 0.000244141 61.0641V64.6196H3.5558C2.61281 64.6196 1.70844 64.245 1.04164 63.5782Z" fill="black"/>
</svg>
