<svg width="64" height="65" viewBox="0 0 64 65" fill="none" xmlns="http://www.w3.org/2000/svg">
<path d="M9.00626 0.619629C4.01746 0.619629 0.000244141 4.63684 0.000244141 9.62564V55.6137C0.000244141 60.6025 4.01746 64.6197 9.00626 64.6197H54.9943C59.9831 64.6197 64.0003 60.6025 64.0003 55.6137V9.62564C64.0003 4.63684 59.9831 0.619629 54.9943 0.619629H9.00626ZM33.4343 7.15966C40.6973 7.15966 46.6023 13.0671 46.6023 20.3296C46.6023 27.5916 40.6973 33.4957 33.4343 33.4957C26.1711 33.4957 20.2623 27.5916 20.2623 20.3296C20.2623 13.0671 26.1711 7.15966 33.4343 7.15966ZM33.2943 14.8757C30.3523 14.9506 27.9803 17.3707 27.9803 20.3297C27.9803 23.3344 30.4276 25.7797 33.4343 25.7797C36.4404 25.7797 38.8843 23.3344 38.8843 20.3297C38.8843 17.3238 36.4403 14.8757 33.4343 14.8757C33.3873 14.8757 33.341 14.8745 33.2943 14.8757ZM22.5302 33.9437C23.2278 33.9461 23.9316 34.138 24.5663 34.5377C29.9569 37.9273 36.906 37.9295 42.2983 34.5377C44.1037 33.4007 46.4833 33.9465 47.6203 35.7517C48.756 37.5539 48.2104 39.9366 46.4063 41.0717C44.0541 42.5501 41.469 43.6205 38.7602 44.2377L46.1243 51.6018C47.6318 53.1062 47.6318 55.5511 46.1243 57.0578C44.616 58.565 42.1759 58.565 40.6703 57.0578L33.4303 49.8217L26.1983 57.0578C25.4452 57.8112 24.457 58.1878 23.4703 58.1878C22.4825 58.1878 21.4977 57.8102 20.7423 57.0578C19.235 55.5502 19.2354 53.1094 20.7423 51.6018L28.1023 44.2377C25.4221 43.6267 22.836 42.5659 20.4543 41.0717C18.6537 39.9366 18.1122 37.5565 19.2482 35.7517C19.9562 34.6235 21.1522 33.9862 22.3903 33.9457C22.4369 33.9442 22.4835 33.9435 22.5302 33.9437Z" fill="black"/>
<path d="M0.000244141 9.62564C0.000244141 4.63684 4.01746 0.619629 9.00626 0.619629H0.000244141V9.62564Z" fill="black"/>
<path d="M54.9943 0.619629C59.9831 0.619629 64.0003 4.63684 64.0003 9.62564V0.619629H54.9943Z" fill="black"/>
<path d="M64.0003 55.6137C64.0003 60.6025 59.9831 64.6197 54.9943 64.6197H64.0003V55.6137Z" fill="black"/>
<path d="M9.00626 64.6197C4.01746 64.6197 0.000244141 60.6025 0.000244141 55.6137V64.6197H9.00626Z" fill="black"/>
</svg>
