<svg width="64" height="65" viewBox="0 0 64 65" fill="none" xmlns="http://www.w3.org/2000/svg">
<path d="M0.000244141 0.619629V64.6196H64.0002V0.619629H0.000244141ZM28.4104 17.7329C30.2225 17.7141 31.9949 17.915 32.8596 17.9399C36.0649 18.0322 36.631 19.6534 36.59 20.9868C36.5301 22.9397 35.2736 31.2007 37.6018 32.0063C40.9943 30.1923 43.2693 24.5579 44.926 20.9868C45.764 19.1805 45.6315 19.0908 47.5626 19.0884L55.2345 19.0766C57.0821 19.0743 57.01 19.0095 57.6018 19.7642C58.9783 21.5193 53.258 28.8198 51.4103 30.8384C48.0008 34.5636 49.9901 36.0061 50.5393 36.5181C53.0838 38.8905 55.5424 41.3507 57.0705 43.6196C58.2854 45.4235 57.7836 47.1029 56.2384 47.1665L48.0119 47.5063C45.282 47.6186 41.0372 42.7249 40.3596 41.6587C39.8117 40.7792 37.1709 39.677 36.9221 41.9242L36.5744 45.0609C36.3219 47.3031 34.6664 47.2508 33.3596 47.3069C24.3106 47.6963 21.2289 44.2511 16.672 39.1663C13.3322 34.4431 10.1451 29.6928 7.50408 24.0022C6.71358 22.2989 6.29486 21.0493 6.18766 19.7249C7.51651 18.6863 12.1809 19.1337 15.3127 19.0648C16.1693 19.0459 16.7472 19.5367 17.1994 20.514C18.9637 24.328 20.8879 28.0734 23.4338 31.3851C24.5425 32.4063 25.5227 32.7818 26.0119 30.7054C26.296 30.6793 26.2732 27.2407 26.2893 24.6468C26.3003 22.8658 26.0911 20.7299 23.0744 19.7444C23.6846 18.145 26.0806 17.7571 28.4104 17.7329Z" fill="black"/>
</svg>
